<svg xmlns="http://www.w3.org/2000/svg"  viewBox="0 0 120 120" width="120px" height="120px" baseProfile="basic"><polygon points="24,110 24,18 70,18 96,42 96,110" opacity=".35"/><polygon fill="#0075ff" points="24,106 24,14 70,14 96,38 96,106"/><polygon points="73,76 63.5,90.25 50,70 31,100 89,100" opacity=".2"/><polygon fill="#52afff" points="73,72 63.5,86.25 57,95 70,96 89,96"/><circle cx="74.5" cy="60.5" r="6.5" opacity=".2"/><circle cx="74.5" cy="56.5" r="6.5" fill="#f80"/><polygon points="70,18 70,45 96,38" opacity=".35"/><polygon fill="#a4e2f1" points="70,14 70,38 96,38"/><polygon fill="#a4e2f1" points="50,66 31,96 70,96"/></svg>