<?xml version="1.0" standalone="no"?>
<!DOCTYPE svg PUBLIC "-//W3C//DTD SVG 20010904//EN"
 "http://www.w3.org/TR/2001/REC-SVG-20010904/DTD/svg10.dtd">
<svg version="1.0" xmlns="http://www.w3.org/2000/svg"
 width="512.000000pt" height="512.000000pt" viewBox="0 0 512.000000 512.000000"
 preserveAspectRatio="xMidYMid meet">

<g transform="translate(0.000000,512.000000) scale(0.100000,-0.100000)"
fill="#000000" stroke="none">
<path d="M1435 5108 c-69 -13 -182 -69 -237 -118 -63 -55 -124 -148 -148 -227
-20 -64 -20 -90 -20 -2203 0 -2101 0 -2139 20 -2201 24 -79 86 -175 148 -229
58 -52 169 -105 246 -119 40 -7 406 -11 1120 -11 883 0 1072 3 1129 15 176 37
330 180 381 354 14 49 16 266 16 2192 0 2100 0 2138 -20 2200 -39 125 -130
234 -249 298 -117 62 -89 61 -1266 60 -627 -1 -1091 -5 -1120 -11z m2225 -350
c52 -27 78 -60 90 -114 13 -52 13 -4116 0 -4168 -12 -54 -38 -87 -90 -114
l-44 -22 -1056 0 -1056 0 -44 23 c-52 26 -78 59 -90 113 -13 52 -13 4116 0
4168 12 54 38 87 90 114 l44 22 1056 0 1056 0 44 -22z"/>
<path d="M1710 4270 l0 -170 850 0 850 0 0 170 0 170 -850 0 -850 0 0 -170z"/>
<path d="M1710 3580 l0 -170 850 0 850 0 0 170 0 170 -850 0 -850 0 0 -170z"/>
<path d="M1710 2900 l0 -170 850 0 850 0 0 170 0 170 -850 0 -850 0 0 -170z"/>
<path d="M2390 850 l0 -170 170 0 170 0 0 170 0 170 -170 0 -170 0 0 -170z"/>
</g>
</svg>
